<svg width="416" height="153" viewBox="0 0 416 153" fill="none" xmlns="http://www.w3.org/2000/svg">
<path d="M254.676 28.4508C255.092 28.4508 255.3 28.6748 255.3 29.1228L254.628 49.8588C254.628 50.4988 254.948 50.8188 255.588 50.8188H257.844V70.2588H243.252C242.772 70.2588 242.372 70.1148 242.052 69.8268C241.764 69.5068 241.604 69.1068 241.572 68.6268L241.044 53.0748C241.012 52.6908 241.108 52.3708 241.332 52.1148C241.588 51.8588 241.908 51.7148 242.292 51.6828L250.404 51.1548L241.956 50.2428C241.508 50.1788 241.284 49.9388 241.284 49.5228L240.132 34.3068C240.068 33.8908 240.1 33.4748 240.228 33.0588C240.356 32.6428 240.548 32.2748 240.804 31.9548L242.628 29.4588C242.916 29.0428 243.284 28.7228 243.732 28.4988C244.212 28.2748 244.708 28.1628 245.22 28.1628L254.676 28.4508ZM267.578 50.8188V70.2588H257.834C257.354 70.2588 257.018 69.4588 256.826 67.8588C256.634 66.2268 256.538 63.7788 256.538 60.5148C256.538 57.6028 256.634 55.2668 256.826 53.5068C257.018 51.7148 257.354 50.8188 257.834 50.8188H267.578ZM280.592 32.7708C281.168 32.7388 281.632 32.8988 281.984 33.2508C282.368 33.5708 282.576 34.0188 282.608 34.5948L282.8 39.2508C282.864 40.0828 282.448 40.4988 281.552 40.4988L269.6 39.9228C269.184 39.9228 268.864 39.7948 268.64 39.5388C268.448 39.2828 268.368 38.9628 268.4 38.5788L268.784 34.5948C268.848 34.2108 269.008 33.9068 269.264 33.6828C269.52 33.4268 269.84 33.2828 270.224 33.2508L280.592 32.7708ZM278.672 43.1388C279.056 43.1068 279.36 43.2028 279.584 43.4268C279.84 43.6508 279.984 43.9548 280.016 44.3388L280.304 50.8188H284.144V70.2588H279.344C278.928 70.2588 278.512 70.1788 278.096 70.0188C277.68 69.8588 277.328 69.6348 277.04 69.3468L275.936 68.2908L274.544 69.7788C274.288 70.0988 273.936 70.2588 273.488 70.2588H267.584C267.104 70.2588 266.784 69.4588 266.624 67.8588C266.432 66.2268 266.336 63.7788 266.336 60.5148C266.336 54.0508 266.752 50.8188 267.584 50.8188H269.6C269.984 50.8188 270.304 50.7068 270.56 50.4828C270.816 50.2268 270.96 49.9068 270.992 49.5228L271.424 44.6748C271.488 44.0348 271.84 43.6828 272.48 43.6188L278.672 43.1388ZM293.875 50.8188V70.2588H284.131C283.651 70.2588 283.315 69.4588 283.123 67.8588C282.931 66.2268 282.835 63.7788 282.835 60.5148C282.835 57.6028 282.931 55.2668 283.123 53.5068C283.315 51.7148 283.651 50.8188 284.131 50.8188H293.875ZM303.625 50.8188V70.2588H293.881C293.401 70.2588 293.065 69.4588 292.873 67.8588C292.681 66.2268 292.585 63.7788 292.585 60.5148C292.585 57.6028 292.681 55.2668 292.873 53.5068C293.065 51.7148 293.401 50.8188 293.881 50.8188H303.625ZM313.375 50.8188V70.2588H303.631C303.151 70.2588 302.815 69.4588 302.623 67.8588C302.431 66.2268 302.335 63.7788 302.335 60.5148C302.335 57.6028 302.431 55.2668 302.623 53.5068C302.815 51.7148 303.151 50.8188 303.631 50.8188H313.375ZM323.125 50.8188V70.2588H313.381C312.901 70.2588 312.565 69.4588 312.373 67.8588C312.181 66.2268 312.085 63.7788 312.085 60.5148C312.085 57.6028 312.181 55.2668 312.373 53.5068C312.565 51.7148 312.901 50.8188 313.381 50.8188H323.125ZM332.875 50.8188V70.2588H323.131C322.651 70.2588 322.315 69.4588 322.123 67.8588C321.931 66.2268 321.835 63.7788 321.835 60.5148C321.835 57.6028 321.931 55.2668 322.123 53.5068C322.315 51.7148 322.651 50.8188 323.131 50.8188H332.875ZM342.625 50.8188V70.2588H332.881C332.401 70.2588 332.065 69.4588 331.873 67.8588C331.681 66.2268 331.585 63.7788 331.585 60.5148C331.585 57.6028 331.681 55.2668 331.873 53.5068C332.065 51.7148 332.401 50.8188 332.881 50.8188H342.625ZM355.015 40.6428C355.271 40.5788 355.511 40.6268 355.735 40.7868C355.991 40.9148 356.151 41.1068 356.215 41.3628C356.631 42.7708 357.031 44.2588 357.415 45.8268C357.831 47.3948 358.151 48.7388 358.375 49.8588C358.439 50.1148 358.471 50.4188 358.471 50.7708C358.503 51.1228 358.503 51.4588 358.471 51.7788C358.311 54.1148 358.087 56.5788 357.799 59.1708C357.543 61.7628 357.175 64.6108 356.695 67.7148C356.567 68.4828 356.231 69.1068 355.687 69.5868C355.143 70.0348 354.471 70.2588 353.671 70.2588H342.631C342.151 70.2588 341.815 69.4588 341.623 67.8588C341.431 66.2268 341.335 63.7788 341.335 60.5148C341.335 57.2508 341.399 54.8188 341.527 53.2188C341.623 51.6188 341.991 50.8188 342.631 50.8188H346.567L346.039 44.3388C345.975 43.8588 346.071 43.4428 346.327 43.0908C346.615 42.7068 346.999 42.4668 347.479 42.3708L355.015 40.6428ZM354.535 72.9468C355.143 72.9468 355.623 73.1228 355.975 73.4748C356.359 73.8588 356.567 74.3388 356.599 74.9148L356.839 78.6108C356.871 79.1868 356.711 79.6348 356.359 79.9548C356.039 80.3068 355.591 80.4668 355.015 80.4348L343.927 79.8108C343.351 79.7788 342.887 79.5708 342.535 79.1868C342.151 78.8348 341.959 78.3548 341.959 77.7468V74.9148C341.959 74.3388 342.151 73.8588 342.535 73.4748C342.887 73.1228 343.351 72.9468 343.927 72.9468H354.535ZM385.555 47.2668C385.555 47.7468 385.555 48.3068 385.555 48.9468C385.555 49.5548 385.539 50.2108 385.507 50.9148C385.507 51.6188 385.491 52.3228 385.459 53.0268C385.459 53.7308 385.427 54.4028 385.363 55.0428C385.299 55.2668 385.171 55.3468 384.979 55.2828L364.483 51.0108C364.195 50.9468 363.987 50.8188 363.859 50.6268C363.731 50.4028 363.715 50.1468 363.811 49.8588C364.035 49.0908 364.291 48.2428 364.579 47.3148C364.867 46.3868 365.155 45.4588 365.443 44.5308C365.763 43.5708 366.083 42.6268 366.403 41.6988C366.723 40.7388 367.027 39.8588 367.315 39.0588C367.443 38.7068 367.651 38.4668 367.939 38.3388C368.259 38.1788 368.595 38.1788 368.947 38.3388L383.779 44.0988C384.323 44.3228 384.755 44.6748 385.075 45.1548C385.395 45.6348 385.555 46.1628 385.555 46.7388V47.2668ZM362.563 68.9628C362.243 66.8508 361.971 64.6268 361.747 62.2908C361.555 59.9548 361.411 57.7468 361.315 55.6668C361.251 55.2508 361.459 55.0428 361.939 55.0428L385.555 56.0028C385.779 56.0028 385.891 56.1148 385.891 56.3388C385.827 57.2028 385.747 58.1148 385.651 59.0748C385.587 60.0028 385.507 60.9308 385.411 61.8588C385.347 62.7548 385.267 63.6188 385.171 64.4508C385.107 65.2828 385.027 66.0348 384.931 66.7068C384.835 67.5068 384.515 68.1788 383.971 68.7228C383.459 69.2668 382.819 69.5868 382.051 69.6828C380.387 69.9388 378.067 70.1788 375.091 70.4028C372.115 70.6588 368.691 70.8188 364.819 70.8828C364.243 70.9148 363.747 70.7388 363.331 70.3548C362.915 70.0028 362.659 69.5388 362.563 68.9628Z" fill="white"/>
<path d="M176.812 69.2588C177.58 69.1735 178.241 69.3228 178.796 69.7068C179.351 70.0908 179.692 70.6668 179.82 71.4348L180.46 74.9548C180.673 75.9788 180.524 76.8961 180.012 77.7068C179.5 78.5175 178.753 79.0721 177.772 79.3708L173.356 80.6508C172.631 80.8641 171.991 80.8215 171.436 80.5228C170.881 80.1815 170.519 79.6268 170.348 78.8588L169.132 73.1628C168.919 72.3948 169.004 71.7335 169.388 71.1788C169.772 70.6241 170.348 70.3041 171.116 70.2188L176.812 69.2588ZM178.476 85.2588C178.391 84.4055 178.775 83.9361 179.628 83.8508L193.452 81.9948C193.836 81.9521 194.156 82.0375 194.412 82.2508C194.668 82.4641 194.796 82.7628 194.796 83.1468L196.652 121.163C196.695 122.016 196.524 122.805 196.14 123.531C195.756 124.256 195.223 124.789 194.54 125.131C193.516 125.685 192.3 126.219 190.892 126.731C189.484 127.243 187.969 127.691 186.348 128.075C184.727 128.459 183.02 128.757 181.228 128.971C179.479 129.227 177.729 129.355 175.98 129.355C173.079 129.355 170.476 129.013 168.172 128.331C165.868 127.691 163.905 126.645 162.284 125.195C160.705 123.744 159.489 121.888 158.636 119.627C157.825 117.408 157.42 114.741 157.42 111.627C157.42 110.176 157.484 108.747 157.612 107.339C157.697 106.528 157.996 105.888 158.508 105.419C159.02 104.907 159.66 104.629 160.428 104.587L179.436 103.499C180.332 103.413 180.716 102.965 180.588 102.155L178.476 85.2588ZM159.276 88.2668C159.361 87.7548 159.596 87.3708 159.98 87.1148C160.364 86.8588 160.812 86.7735 161.324 86.8588L166.252 87.6268C166.764 87.7121 167.169 87.9468 167.468 88.3308C167.767 88.6721 167.895 89.0988 167.852 89.6108L167.02 101.707C166.935 102.56 166.487 102.944 165.676 102.859L158.316 101.899C157.463 101.771 157.1 101.28 157.228 100.427L159.276 88.2668ZM219.09 61.5148C219.645 61.5148 219.922 61.8135 219.922 62.4108L219.026 90.0588C219.026 90.9121 219.453 91.3388 220.306 91.3388H223.314V117.259H203.858C203.218 117.259 202.685 117.067 202.258 116.683C201.874 116.256 201.661 115.723 201.618 115.083L200.914 94.3468C200.871 93.8348 200.999 93.4081 201.298 93.0668C201.639 92.7255 202.066 92.5335 202.578 92.4908L213.394 91.7868L202.13 90.5708C201.533 90.4855 201.234 90.1655 201.234 89.6108L199.698 69.3228C199.613 68.7681 199.655 68.2135 199.826 67.6588C199.997 67.1041 200.253 66.6135 200.594 66.1868L203.026 62.8588C203.41 62.3041 203.901 61.8775 204.498 61.5788C205.138 61.2801 205.799 61.1308 206.482 61.1308L219.09 61.5148ZM236.292 91.3388V117.259H223.3C222.66 117.259 222.212 116.192 221.956 114.059C221.7 111.883 221.572 108.619 221.572 104.267C221.572 100.384 221.7 97.2695 221.956 94.9228C222.212 92.5335 222.66 91.3388 223.3 91.3388H236.292ZM249.292 91.3388V117.259H236.3C235.66 117.259 235.212 116.192 234.956 114.059C234.7 111.883 234.572 108.619 234.572 104.267C234.572 100.384 234.7 97.2695 234.956 94.9228C235.212 92.5335 235.66 91.3388 236.3 91.3388H249.292ZM262.292 91.3388V117.259H249.3C248.66 117.259 248.212 116.192 247.956 114.059C247.7 111.883 247.572 108.619 247.572 104.267C247.572 100.384 247.7 97.2695 247.956 94.9228C248.212 92.5335 248.66 91.3388 249.3 91.3388H262.292ZM275.292 91.3388V117.259H262.3C261.66 117.259 261.212 116.192 260.956 114.059C260.7 111.883 260.572 108.619 260.572 104.267C260.572 100.384 260.7 97.2695 260.956 94.9228C261.212 92.5335 261.66 91.3388 262.3 91.3388H275.292ZM288.292 91.3388V117.259H275.3C274.66 117.259 274.212 116.192 273.956 114.059C273.7 111.883 273.572 108.619 273.572 104.267C273.572 100.384 273.7 97.2695 273.956 94.9228C274.212 92.5335 274.66 91.3388 275.3 91.3388H288.292ZM301.292 91.3388V117.259H288.3C287.66 117.259 287.212 116.192 286.956 114.059C286.7 111.883 286.572 108.619 286.572 104.267C286.572 100.384 286.7 97.2695 286.956 94.9228C287.212 92.5335 287.66 91.3388 288.3 91.3388H301.292ZM314.292 91.3388V117.259H301.3C300.66 117.259 300.212 116.192 299.956 114.059C299.7 111.883 299.572 108.619 299.572 104.267C299.572 100.384 299.7 97.2695 299.956 94.9228C300.212 92.5335 300.66 91.3388 301.3 91.3388H314.292ZM327.292 91.3388V117.259H314.3C313.66 117.259 313.212 116.192 312.956 114.059C312.7 111.883 312.572 108.619 312.572 104.267C312.572 100.384 312.7 97.2695 312.956 94.9228C313.212 92.5335 313.66 91.3388 314.3 91.3388H327.292ZM340.292 91.3388V117.259H327.3C326.66 117.259 326.212 116.192 325.956 114.059C325.7 111.883 325.572 108.619 325.572 104.267C325.572 100.384 325.7 97.2695 325.956 94.9228C326.212 92.5335 326.66 91.3388 327.3 91.3388H340.292ZM353.292 91.3388V117.259H340.3C339.66 117.259 339.212 116.192 338.956 114.059C338.7 111.883 338.572 108.619 338.572 104.267C338.572 100.384 338.7 97.2695 338.956 94.9228C339.212 92.5335 339.66 91.3388 340.3 91.3388H353.292ZM366.292 91.3388V117.259H353.3C352.66 117.259 352.212 116.192 351.956 114.059C351.7 111.883 351.572 108.619 351.572 104.267C351.572 100.384 351.7 97.2695 351.956 94.9228C352.212 92.5335 352.66 91.3388 353.3 91.3388H366.292ZM379.292 91.3388V117.259H366.3C365.66 117.259 365.212 116.192 364.956 114.059C364.7 111.883 364.572 108.619 364.572 104.267C364.572 100.384 364.7 97.2695 364.956 94.9228C365.212 92.5335 365.66 91.3388 366.3 91.3388H379.292ZM392.292 91.3388V117.259H379.3C378.66 117.259 378.212 116.192 377.956 114.059C377.7 111.883 377.572 108.619 377.572 104.267C377.572 100.384 377.7 97.2695 377.956 94.9228C378.212 92.5335 378.66 91.3388 379.3 91.3388H392.292ZM410.092 77.7708C411.202 77.6428 411.799 78.1335 411.884 79.2428L413.1 111.883C413.1 112.523 412.908 113.035 412.524 113.419L410.412 115.915C410.071 116.341 409.623 116.683 409.068 116.939C408.556 117.152 408.044 117.259 407.532 117.259H392.3C391.66 117.259 391.234 116.192 391.02 114.059C390.764 111.883 390.636 108.619 390.636 104.267C390.636 99.9148 390.764 96.6721 391.02 94.5388C391.234 92.4055 391.66 91.3388 392.3 91.3388H397.548L396.524 82.6988C396.439 81.9308 396.61 81.2695 397.036 80.7148C397.463 80.1601 398.06 79.8188 398.828 79.6908L410.092 77.7708ZM401.452 121.419C402.22 121.461 402.796 121.739 403.18 122.251C403.607 122.763 403.778 123.403 403.692 124.171L402.988 129.355C402.903 129.867 402.668 130.293 402.284 130.635C401.943 130.976 401.516 131.168 401.004 131.211L395.372 131.723C394.604 131.808 393.964 131.616 393.452 131.147C392.983 130.72 392.727 130.123 392.684 129.355L392.492 123.339C392.45 122.528 392.642 121.888 393.068 121.419C393.538 120.992 394.156 120.821 394.924 120.907L401.452 121.419Z" fill="white"/>
<g clip-path="url(#clip0_78_56)">
<rect width="152" height="152" fill="#E02F3A"/>
<g filter="url(#filter0_f_78_56)">
<rect x="0.331543" width="128" height="128" fill="black" fill-opacity="0.2"/>
</g>
<path fill-rule="evenodd" clip-rule="evenodd" d="M135.371 76.0092L126.66 61.0371H102.527L114.603 40.3051L105.892 25.333H88.4699L76.3937 46.0651L64.3368 25.3521H46.9148L38.2038 40.3242L50.2799 61.0562H26.1468L17.4166 76.0092L26.1276 90.9813H50.2607L38.1846 111.713L46.8955 126.666H64.3175L76.3937 105.934L88.4699 126.666H88.6429H105.892L114.603 111.713L102.527 90.9813H126.66L135.371 76.0092ZM110.199 40.3051L98.1231 61.0371H87.3161L104.796 31.0357L110.199 40.3051ZM90.662 29.1285H101.469L83.9894 59.1489L78.5859 49.8605L90.662 29.1285ZM81.7972 62.9444L76.3937 72.2328L57.8179 40.3242L63.2214 31.0357L81.7972 62.9444ZM42.6074 40.3051L49.1069 29.1285H59.914L53.4144 40.3051L73.0862 74.1019H62.2792L42.6074 40.3051ZM28.339 64.8326H52.4721L57.8756 74.121H22.9355L28.339 64.8326ZM28.339 87.1858L22.9355 77.8974H57.8756L52.4721 87.1858H28.339ZM62.2792 77.8974H73.0862L54.5105 109.806H43.7034L62.2792 77.8974ZM62.1254 122.89H49.1069L43.7034 113.602H56.7219L76.3937 79.8047L81.7972 89.0931L62.1254 122.89ZM90.662 122.89L78.5859 102.158L83.9894 92.8695L101.469 122.89H90.662ZM110.199 111.713L104.796 120.983L87.3161 90.9622H98.1231L110.199 111.713ZM85.1047 87.1858L79.7012 77.8974H116.853L122.256 87.1858H85.1047ZM119.064 74.121H118.891H79.7204L85.1239 64.8326H124.487L130.986 76.0092L125.564 85.2976L119.064 74.121Z" fill="white"/>
</g>
<defs>
<filter id="filter0_f_78_56" x="-54.9685" y="-55.3" width="238.6" height="238.6" filterUnits="userSpaceOnUse" color-interpolation-filters="sRGB">
<feFlood flood-opacity="0" result="BackgroundImageFix"/>
<feBlend mode="normal" in="SourceGraphic" in2="BackgroundImageFix" result="shape"/>
<feGaussianBlur stdDeviation="27.65" result="effect1_foregroundBlur_78_56"/>
</filter>
<clipPath id="clip0_78_56">
<rect width="152" height="152" fill="white"/>
</clipPath>
</defs>
</svg>
